<svg width="648" height="290" viewBox="0 0 648 290" fill="none" xmlns="http://www.w3.org/2000/svg">
<path d="M285.376 97.7531C283.111 97.0952 277.036 96.7572 276.092 95.7503L276.432 95.1218C279.592 93.206 291.02 92.349 294.801 91.4905C304.991 89.1766 315.746 86.3791 326.193 86.5408C326.37 89.6661 325.569 92.2022 324.987 95.2034C322.396 108.522 315.165 121.235 314.153 134.917L314.126 136.151C314.256 137.009 314.072 136.671 314.562 137.257C315.486 136.582 315.947 132.569 316.84 131.651C320.966 127.695 322.978 122.752 326.259 118.457C336.172 105.482 351.046 83.5876 369.939 86.8098C379.719 88.4788 382.833 95.9009 382.63 104.755C382.374 115.797 377.033 124.254 375.274 134.663C375.217 135.614 375.188 136.876 375.024 137.789C377.875 136.326 375.976 133.411 378.131 132.543L378.602 133.329C380.267 132.831 382.292 127.516 383.519 126.134C386.848 122.393 389.487 118.762 392.129 114.5C393.125 112.895 395.536 110.612 396.9 109.1C404.88 100.221 415.201 89.1167 427.332 86.7019C434.454 85.2841 443.285 88.4655 446.171 95.3167C446.981 97.2408 447.114 98.3797 447.373 100.386C447.503 104.567 447.49 107.379 447.357 111.552C446.819 116.682 446.345 121.549 444.573 126.442C443.674 128.922 443.102 131.815 442.124 134.251C439.298 141.293 437.296 148.415 435.239 155.72C434.856 157.081 434.252 159.641 433.856 161.074C430.879 164.428 430.996 168.794 429.727 173.117C428.503 177.276 426.918 181.727 425.975 185.998C425.864 188.123 425.886 188.978 426.13 191.09C428.531 191.318 430.11 190.933 432.379 190.177C435.704 186.117 440.574 182.739 443.63 178.651L443.605 178.661C444.405 178.57 445.364 178.394 446.13 178.541C446.816 179.463 446.892 180.79 447.079 181.978C445.563 185.02 438.704 192.553 435.995 195.439C431.863 199.198 423.769 204.441 418.495 205.911C411.828 207.325 403.69 208.054 398.558 202.92C388.999 193.359 395.375 181.035 398.194 170.183C399.9 163.614 401.877 157.537 404.351 151.051C406.288 145.966 407.155 139.395 409.101 134.227C410.85 128.418 422.627 101.796 405.136 113.253C401.254 117.059 395.774 121.404 392.379 125.596C385.047 134.649 377.514 144.518 371.29 154.359C368.455 158.84 368.129 163.405 365.649 167.585C363.937 170.468 364.133 171.472 363.276 174.511L358.897 190.04C358.276 192.253 357.295 194.354 356.641 196.555C356.09 198.402 355.657 202.133 354.388 203.564C352.834 205.316 328.411 204.211 324.661 204.496L324.313 204.524C324.101 195.388 327.623 188.918 330.104 180.218C331.296 176.031 332.046 171.723 333.166 167.945L340.681 142.755C341.782 139.126 351.467 112.431 347.11 111.134C340.238 109.087 328.366 126.829 324.5 131.925C315.601 143.662 308.989 157.111 302.642 170.359C300.761 174.239 300.77 179.54 299.406 183.518C299.041 183.829 298.094 184.627 298.019 185.029C297.042 190.275 294.357 198.963 293.915 204.006C290.188 204.932 283.097 204.469 279.027 204.429C273.427 204.398 267.827 204.435 262.229 204.542C262.418 197.389 265.312 189.576 267.648 182.889C268.338 180.591 268.588 178.071 269.277 175.789C270.712 171.026 271.992 166.205 273.382 161.434L280.877 135.316C283.805 125.198 288.687 111.631 288.133 101.065C286.461 99.8107 286.34 99.5519 285.376 97.7531Z" fill="#5B28AD"/>
<path d="M314.126 136.151C313.593 137.48 312.933 139.427 311.492 139.693L311.053 139.164C310.647 137.309 310.968 135.61 312.565 134.503C313.628 134.555 313.332 134.402 314.153 134.917L314.126 136.151Z" fill="#5B28AD"/>
<path d="M372.483 140.956C372.496 139.102 372.195 136.898 372.939 135.371C373.967 134.516 373.707 134.771 375.274 134.663C375.217 135.614 375.188 136.876 375.024 137.789C374.631 138.838 373.296 140.095 372.483 140.956Z" fill="#5B28AD"/>
<path d="M540.637 33.06C559.239 32.8081 578.4 33.0676 597.062 33.0597L616.628 33.0242C620.517 33.0173 625.5 32.8882 629.3 33.2689L629.174 37.7837C622.134 37.672 615.701 36.9749 609.781 41.8935C606.94 44.2537 605.513 50.4062 605.447 53.9562C605.269 63.3651 605.329 72.9271 605.326 82.3572L605.323 136.236L605.326 169.032C605.326 176.788 603.836 188.825 609.262 194.756C614.138 200.085 622.634 198.896 629.24 199.246L629.554 204.197C621.757 204.834 611.591 204.164 603.447 204.282C582.763 204.582 561.219 203.871 540.586 204.633C540.517 202.935 540.65 200.838 540.713 199.111C552.474 199.076 554.825 200.406 562.785 190.862C562.89 185.195 564.127 179.543 564.067 173.657C563.668 133.433 564.883 93.0239 563.421 52.8496C562.925 39.1242 552.047 37.0891 540.691 38.0337L540.637 33.06Z" fill="#5B28AD"/>
<path d="M426.3 252.914C428.534 248.759 432.698 247.212 435.998 244.108C439.7 240.661 443.263 237.174 446.674 233.433C449.411 230.439 451.075 226.731 454.109 224.082C454.53 223.714 455.717 222.627 455.96 222.165C458.261 217.432 461.754 212.935 464.045 208.265C466.386 203.481 468.015 199.327 471.005 194.786C472.527 192.471 473.663 187.732 474.904 185.058C476.672 181.252 478.447 177.317 479.972 173.408C481.504 170.087 481.959 165.984 483.212 162.656C485.845 155.678 488.272 148.823 489.873 141.51C490.268 139.707 490.578 137.257 491.135 135.576C493.432 128.64 494.005 121.319 495.331 114.157C496.011 110.341 495.584 105.635 496.03 101.727C496.441 98.1373 496.954 94.5354 497.223 90.9351C497.634 83.8404 497.198 76.9233 496.264 69.8914C495.847 66.7525 495.926 63.4199 495.34 60.2841C494.423 56.017 493.723 51.7015 492.467 47.5221C491.369 43.8654 486.133 32.2638 488.107 28.6746C489.072 28.293 491.281 29.4218 492.537 29.8892C494.09 34.2515 499.931 43.1002 502.798 47.8784C511.249 61.9543 517.505 77.8531 521.118 93.8648C521.637 96.1591 522.26 106.812 522.358 109.576L522.219 109.927C522.162 112.572 521.789 126.364 522.323 127.914C522.327 129.174 522.276 130.965 522.365 132.18C522.061 136.563 521.956 141.517 521.235 145.872C520.273 151.676 517.9 157.918 516.584 163.714C516.568 163.786 515.037 165.25 515.037 165.243C512.923 174.02 508.746 181.745 504.165 189.432C494.609 206.994 479.153 222.472 464.035 235.38C457.413 241.032 436.58 253.883 428.442 255.582C428.218 256.544 428.202 257.006 427.547 257.74L426.838 257.734C426.421 257.108 426.357 253.886 426.3 252.914Z" fill="#5B28AD"/>
<path d="M288.491 26.8174L288.601 32.2009C286.196 36.7699 274.234 44.855 269.857 50.2804C263.214 58.1775 256.055 66.3902 251.093 75.5205C248.615 80.08 244.606 87.6202 242.567 92.3193C240.695 99.1107 236.01 106.517 234.289 113.033C231.645 123.044 226.303 135.154 224.945 145.163C224.678 149.384 223.082 147.864 222.458 151.537C221.607 159.684 220.321 167.261 219.35 175.311C219.287 182.596 217.726 184.535 217.432 190.705C217.763 195.264 217.123 200.507 217.435 205.142C218.209 216.634 219.492 227.987 222.897 239.047C223.981 242.57 230.296 254.646 224.292 255.848C221.385 255.196 217.789 247.361 216.129 244.661C205.169 226.858 195.525 206.039 193.069 185.081C192.762 182.465 192.319 179.226 192.444 176.669C193.019 174.695 192.925 155.333 192.197 153.912C191.662 146.828 195.609 129.65 198.054 123.067C201.39 114.086 206.039 103.317 210.88 95.063C215.874 86.5487 222.564 77.4487 229.372 70.3816C245.5 52.1975 263.196 39.3332 285.349 29.4437C286.806 28.793 287.406 28.0035 288.491 26.8174Z" fill="#5B28AD"/>
<path d="M217.432 190.705C217.15 188.608 216.9 177.993 217.98 175.741C218.179 175.327 218.759 175.391 219.35 175.311C219.287 182.596 217.726 184.535 217.432 190.705Z" fill="#5B28AD"/>
<path d="M222.458 151.537C222.361 149.74 221.983 147.132 222.93 145.675C223.729 145.094 223.94 145.142 224.945 145.163C224.678 149.384 223.082 147.864 222.458 151.537Z" fill="#5B28AD"/>
<path d="M192.197 153.912C192.925 155.333 193.019 174.695 192.444 176.669C191.917 175.222 190.607 175.249 190.581 173.686C190.484 167.958 188.756 158.665 192.197 153.912Z" fill="#5B28AD"/>
<path d="M522.324 127.915C521.789 126.364 522.162 112.573 522.219 109.927C522.317 112.557 522.358 115.782 522.659 118.347C523.035 115.617 523.437 111.765 524.266 109.227C524.364 110.7 524.598 115.206 524.893 116.439C524.915 119.506 524.921 122.573 524.912 125.64L524.494 128.322L524.159 128.523L523.931 128.465C523.788 126.611 523.501 124.326 523.045 122.541L522.956 122.2L523.016 122.265L522.311 122.524V122.693L523.162 122.706L522.314 123.028C522.317 124.398 522.346 125.769 522.393 127.139L522.324 127.915Z" fill="#5B28AD"/>
<path d="M447.373 100.386L447.924 102.958C449.192 103 448.522 101.991 449.547 102.481C449.983 103.876 450.214 109.156 449.484 110.281C448.829 110.088 448.519 109.573 447.99 109.012C447.794 109.862 447.585 110.709 447.357 111.552C447.49 107.379 447.503 104.567 447.373 100.386Z" fill="#5B28AD"/>
<path d="M522.358 109.576L522.864 110.023L523.912 109.327C525.519 109.878 524.937 114.815 524.893 116.439C524.598 115.206 524.364 110.7 524.266 109.227C523.437 111.765 523.035 115.617 522.659 118.347C522.358 115.782 522.317 112.557 522.219 109.927L522.358 109.576Z" fill="#5B28AD"/>
<path d="M523.931 128.465L524.159 128.523L524.494 128.321L524.912 125.64C525.057 128.234 524.937 129.271 524.605 131.83L523.171 130.211L522.785 130.411L522.365 132.18C522.276 130.965 522.327 129.174 522.323 127.914L522.393 127.138L523.931 128.465Z" fill="#5B28AD"/>
<path d="M522.393 127.139C522.346 125.769 522.317 124.398 522.314 123.028L523.162 122.706L522.311 122.693V122.524L523.016 122.265L522.956 122.2L523.045 122.541C523.5 124.326 523.788 126.611 523.931 128.465L522.393 127.139Z" fill="#5B28AD"/>
<path d="M58.4086 199.686C59.5584 200.965 58.8908 202.989 57.8216 204.136L57.4306 203.832C57.0945 202.835 58.0109 200.78 58.4086 199.686Z" fill="#5B28AD"/>
<path d="M2.16309 199.023C15.16 195.781 20.9225 185.185 26.4587 173.767C27.6408 171.329 29.3397 168.704 30.5275 166.224C33.439 156.776 38.4294 147.947 42.4857 138.957L66.3184 85.196L80.8199 52.8407C82.2662 49.5707 89.6404 30.6049 92.1232 29.8125C95.4474 30.7397 98.2963 40.6805 99.7448 44.1426L110.635 69.5771L149.171 156.775C154.363 168.277 158.772 180.383 165.895 190.956C170.008 197.06 174.585 198.366 181.435 199.177L181.756 204.163C177.742 204.71 164.894 204.325 159.913 204.377L99.3968 204.473C99.4385 202.755 99.5306 200.909 99.3876 199.207C103.989 198.969 109.552 199.258 113.85 198.374C116.474 195.995 119.059 195.439 118.987 191.322C118.785 179.708 108.412 167.596 106.141 156.288C100.23 155.381 83.435 155.658 76.626 155.731C67.6872 155.826 53.7776 155.291 45.3625 156.058L45.2802 156.409C42.7873 166.721 29.8736 180.628 36.4114 191.833C40.5993 199.01 48.743 199.037 56.2791 198.944C56.2959 200.788 56.2848 202.704 56.3427 204.541C38.369 204.192 20.3898 204.194 2.41597 204.548C2.47366 202.955 2.26401 200.663 2.16309 199.023ZM51.0872 145.113C59.1689 145.672 69.0471 145.435 77.2835 145.424C80.968 145.467 99.2395 146.077 100.989 144.567C100.679 143.394 98.4406 139.275 97.7765 137.946C96.4071 135.153 95.0978 132.331 93.8499 129.482C91.0348 123.071 79.1569 92.3479 76.0643 89.2625C71.0898 95.5986 70.195 100.815 66.9623 107.978L56.9012 130.525C55.0999 134.612 52.082 140.949 51.0872 145.113Z" fill="#5B28AD"/>
<path d="M0 199.307L2.16312 199.022C2.26404 200.663 2.47369 202.955 2.416 204.547L0 204.503V199.307Z" fill="#5B28AD"/>
</svg>
